<?xml version="1.0" encoding="utf-8"?>
<!-- Generator: Adobe Illustrator 29.5.1, SVG Export Plug-In . SVG Version: 9.03 Build 0)  -->
<svg version="1.0" id="Layer_1" xmlns="http://www.w3.org/2000/svg" xmlns:xlink="http://www.w3.org/1999/xlink" x="0px" y="0px"
	 viewBox="0 0 554.6 554" style="enable-background:new 0 0 554.6 554;" xml:space="preserve">
<style type="text/css">
	.st0{fill:#FFFFFF;}
	.st1{clip-path:url(#SVGID_00000006691781533307500970000016369656189930006166_);}
	.st2{clip-path:url(#SVGID_00000033356666632026703550000006755676965147543443_);}
	.st3{clip-path:url(#SVGID_00000157281165143134008380000002455201317947422849_);}
</style>
<path class="st0" d="M10.8,11.8l531.7,531.7"/>
<g>
	<g>
		<g>
			<defs>
				<rect id="SVGID_1_" y="1.1" width="553.3" height="552.8"/>
			</defs>
			<clipPath id="SVGID_00000087389962670249985940000013340438112216033426_">
				<use xlink:href="#SVGID_1_"  style="overflow:visible;"/>
			</clipPath>
			<g style="clip-path:url(#SVGID_00000087389962670249985940000013340438112216033426_);">
				<path class="st0" d="M542.6,554c-2.7,0-5.4-1-7.5-3.1L3.3,19.2c-4.1-4.1-4.1-10.8,0-15c4.1-4.1,10.8-4.1,15,0L550,535.9
					c4.1,4.1,4.1,10.8,0,15C548,553,545.3,554,542.6,554z"/>
			</g>
		</g>
	</g>
</g>
<g>
	<g>
		<g>
			<defs>
				<rect id="SVGID_00000162343235173936751830000005135076442203151802_" y="171.8" width="201.3" height="382.2"/>
			</defs>
			<clipPath id="SVGID_00000013873302714976645980000011579227682163274393_">
				<use xlink:href="#SVGID_00000162343235173936751830000005135076442203151802_"  style="overflow:visible;"/>
			</clipPath>
			<g style="clip-path:url(#SVGID_00000013873302714976645980000011579227682163274393_);">
				<path class="st0" d="M10.8,554L10.8,554c-5.9,0-10.6-4.7-10.6-10.6l0.1-355.3c0-6.1,3.7-11.6,9.3-13.9
					c5.6-2.3,12.1-1.1,16.4,3.3l172.1,170.6c4.1,4.1,4.2,10.8,0.1,15c-4.1,4.2-10.8,4.2-15,0.1L21.5,202.8l-0.1,340.7
					C21.4,549.3,16.7,554,10.8,554z M11.1,192.5C11.1,192.5,11.2,192.5,11.1,192.5L11.1,192.5z"/>
			</g>
		</g>
	</g>
</g>
<g>
	<g>
		<g>
			<defs>
				<rect id="SVGID_00000151526479221981145380000012409917656135767454_" x="330.7" width="222.7" height="366.5"/>
			</defs>
			<clipPath id="SVGID_00000133495105552900308970000013313389037199593360_">
				<use xlink:href="#SVGID_00000151526479221981145380000012409917656135767454_"  style="overflow:visible;"/>
			</clipPath>
			<g style="clip-path:url(#SVGID_00000133495105552900308970000013313389037199593360_);">
				<path class="st0" d="M542.6,366.2c-5.8,0-10.6-4.7-10.6-10.6l-0.1-324.8L349,212.4c-4.1,4.1-10.8,4.1-15-0.1
					c-4.1-4.1-4.1-10.8,0.1-15L527.4,5.4c4.3-4.3,10.7-5.6,16.4-3.2c5.7,2.3,9.3,7.8,9.3,13.9l0.1,339.4
					C553.1,361.5,548.4,366.2,542.6,366.2z M542.3,20.5L542.3,20.5L542.3,20.5z"/>
			</g>
		</g>
	</g>
</g>
</svg>
