<?xml version="1.0" encoding="utf-8"?>
<svg xmlns="http://www.w3.org/2000/svg" viewBox="0 0 554.6 554">
<rect width="554.6" height="554" fill="#FFFFFF"/>
<path fill="#1a1a1a" d="M542.6,554c-2.7,0-5.4-1-7.5-3.1L3.3,19.2c-4.1-4.1-4.1-10.8,0-15c4.1-4.1,10.8-4.1,15,0L550,535.9c4.1,4.1,4.1,10.8,0,15C548,553,545.3,554,542.6,554z"/>
<path fill="#1a1a1a" d="M10.8,554L10.8,554c-5.9,0-10.6-4.7-10.6-10.6l0.1-355.3c0-6.1,3.7-11.6,9.3-13.9c5.6-2.3,12.1-1.1,16.4,3.3l172.1,170.6c4.1,4.1,4.2,10.8,0.1,15c-4.1,4.2-10.8,4.2-15,0.1L21.5,202.8l-0.1,340.7C21.4,549.3,16.7,554,10.8,554z"/>
<path fill="#1a1a1a" d="M542.6,366.2c-5.8,0-10.6-4.7-10.6-10.6l-0.1-324.8L349,212.4c-4.1,4.1-10.8,4.1-15-0.1c-4.1-4.1-4.1-10.8,0.1-15L527.4,5.4c4.3-4.3,10.7-5.6,16.4-3.2c5.7,2.3,9.3,7.8,9.3,13.9l0.1,339.4C553.1,361.5,548.4,366.2,542.6,366.2z"/>
</svg>
