<svg width="960" height="720" viewBox="0 0 960 720" fill="none" xmlns="http://www.w3.org/2000/svg">
  <defs>
    <linearGradient id="gradient-bg" x1="0%" y1="0%" x2="100%" y2="100%">
      <stop offset="0%" stop-color="#0f1729"/>
      <stop offset="45%" stop-color="#1f2b3a"/>
      <stop offset="100%" stop-color="#4c3523"/>
    </linearGradient>
    <linearGradient id="light-sweep" x1="0%" y1="0%" x2="100%" y2="0%">
      <stop offset="0%" stop-color="rgba(255,255,255,0.05)"/>
      <stop offset="40%" stop-color="rgba(255,255,255,0.25)"/>
      <stop offset="100%" stop-color="rgba(255,255,255,0)"/>
    </linearGradient>
  </defs>
  <rect width="960" height="720" fill="url(#gradient-bg)"/>
  <path d="M0 510L120 468C240 426 480 342 720 330C960 318 960 354 960 354V720H0V510Z" fill="#d68f3a" fill-opacity="0.22"/>
  <path d="M54 720L186 516L318 588L450 414L582 546L714 450L846 588L960 432V720H54Z" fill="#f7f7f7" fill-opacity="0.08"/>
  <rect x="90" y="120" width="420" height="210" fill="rgba(255,255,255,0.08)" stroke="rgba(255,255,255,0.15)" stroke-width="2"/>
  <rect x="540" y="180" width="300" height="150" fill="rgba(255,255,255,0.06)" stroke="rgba(255,255,255,0.12)" stroke-width="2"/>
  <text x="110" y="210" fill="#f5f5f5" font-family="system-ui, -apple-system, BlinkMacSystemFont, 'Segoe UI', sans-serif" font-size="28" letter-spacing="2">
    Materiales del Norte
  </text>
  <text x="110" y="246" fill="#d6d9e2" font-family="system-ui, -apple-system, BlinkMacSystemFont, 'Segoe UI', sans-serif" font-size="16" letter-spacing="3">
    LOGÍSTICA · SUMINISTRO · CONFIANZA
  </text>
  <rect x="-200" y="260" width="500" height="720" transform="rotate(-12)" fill="url(#light-sweep)"/>
</svg>
