<?xml version="1.0" encoding="UTF-8"?>
<svg id="Layer_1" xmlns="http://www.w3.org/2000/svg" version="1.1" viewBox="0 0 646.6 150">
  <!-- Generator: Adobe Illustrator 29.5.1, SVG Export Plug-In . SVG Version: 2.1.0 Build 141)  -->
  <defs>
    <style>
      .st0 {
        fill: #fff;
      }
    </style>
  </defs>
  <path class="st0" d="M10.3,75L31.7,29.7c1.3-2.8,2.5-6.5-.9-11.5l-8-12.6C20.6,3.3,20.8,0,24.2,0h102.7l32.2,68.7c.9,2.1,1.9,4.1,3,6.3,4.3,9,8.9,19.1,9.4,29.2,2.1,31.6-28.3,45.8-48.6,45.8H48.7C21.7,150-1.8,129.9.1,104.2c.4-4.6,1-9.2,3.1-13.6,1.2-2.8,2.1-4.7,3.2-7.4l3.8-8.3ZM142.9,75l-26.7-56.8H48.5c1,3.2,4.6,8.4,2.4,12.4l-21,44.4-3.9,8.1c-3.1,8.1-6.8,12.5-6.8,21.1,0,18.3,15.8,27.6,29.2,27.6h74.4c14.5,0,29.2-10.3,29.2-27.6s-2.4-14.2-5.3-20.7l-4-8.6Z"/>
  <path class="st0" d="M120.9,68.2v-21.1l-23-13.1-23.3,13.4v12.8l-11.2-6.3-23.9,13.4v26l23.8,13.9,11.5-6.5v12.9l12.6,7.2,10.6,6,10.6-6,12.4-7.1v-27l-10.9-6.2,10.9-6.5v-5.8ZM123.9,60.7l9.9,5.5v27.6l-9.9,6.3v15.2l-9.6,5.5-16.5,9.3-13.3-7.5-9.7,5.2-12.5-6.9-12.3-6.8v-11.1l-13.6-8v-29.1l13.7-7.8v-10.9l24.9-14.3,9.6,5.5,13.3-7.5,26,14.8v15.2ZM131.5,68.2l-7.5-4.1v8.4l7.5-4.3ZM81.2,120.8l-6.6-3.8v7.7l6.9-3.7h-.3ZM53,52.3v4l6.9-4-6.9-4v4Z"/>
  <path class="st0" d="M83.7,68.2l2.4-1.3-9.6-5.3v-13.3l7.1,4,14.2,8v27.3l10.3-6,11.4,6.5-22.1,12.6-22.7-13v10.6l-12,6.9v-25.1l21.1-11.8Z"/>
  <path class="st0" d="M341.9,87.1l39.4-69.8h26.4l1.8,69.8,1,44.7h-28l-1-11.5h-25.2l-5.9,11.5h-33.7l25.2-44.7ZM379.7,87.1l-.9-12.3-6,12.3-6.1,12.2h14l-1-12.2Z"/>
  <path class="st0" d="M432.5,61.6l11.8-44.3h43.5c4.6,0,10.6,3.5,14.6,8.3,8.3,9,8.1,23.6,6.2,36-.1,1-.3,2.1-.4,3-3.2,15.4-8.9,28.9-19.9,38.7-4.7,3.8-11.4,7.2-18.7,7.2h-19.3l-5.9,21.4h-30.4l18.6-70.3ZM479.2,61.6c4.2-19.7,2.5-26.5-5.5-27.2h-3.7l-7.1,27.2-7.1,27.2h3.5c6.1,0,8.9-3.4,11.7-7.2,2.8-3.7,6.1-11.2,8.1-19.9"/>
  <path class="st0" d="M229.7,132h-29.7l30-114.6h34l6.4,56.1,36-56.1h34.4l-30.3,114.4h-29.7l12.2-52.7-28.3,52.7h-18.6l-2.2-52.7-14.2,52.9Z"/>
  <path class="st0" d="M555.5,131.8h-60.4l30.3-114.6h59.9l-7.5,29.4h-31.4l-4.1,14.3h32l-7.5,27.7h-31.6l-3.4,13.7h31.4l-7.7,29.4Z"/>
  <path class="st0" d="M563.9,131.8l30.8-114.6h29.1l-29.5,114.6h-30.4Z"/>
  <path class="st0" d="M643.9,25.4c0,4.3-3.2,7.2-6.9,7.2h0c-3.8,0-6.9-2.9-6.9-7.2s3.1-7.2,6.9-7.2,6.9,2.9,6.9,7.2M646.7,25.4c0-5.9-4.6-9.4-9.7-9.4s-9.7,3.5-9.7,9.4,4.6,9.4,9.7,9.4,9.7-3.4,9.7-9.4M635.4,26.2h1l2.4,4.2h2.6l-2.7-4.4c1.4,0,2.5-.8,2.5-2.6s-1.6-3.1-4.3-3.1h-3.9v10.1h2.2v-4.2ZM635.4,24.5v-2.4h1.6c.8,0,2,0,2,1.1s-.6,1.3-1.6,1.3h-2Z"/>
</svg>