<?xml version="1.0" encoding="utf-8"?>
<!-- Generator: Adobe Illustrator 29.5.1, SVG Export Plug-In . SVG Version: 9.03 Build 0)  -->
<svg version="1.0" id="Layer_1" xmlns="http://www.w3.org/2000/svg" xmlns:xlink="http://www.w3.org/1999/xlink" x="0px" y="0px"
	 viewBox="0 0 553.2 554" style="enable-background:new 0 0 553.2 554;" xml:space="preserve">
<style type="text/css">
	.st0{clip-path:url(#SVGID_00000098181583558520668540000001253628843165743748_);}
	.st1{clip-path:url(#SVGID_00000047738886549295690730000000050569170336191635_);}
	.st2{clip-path:url(#SVGID_00000146461872267018120070000008547926359541679282_);}
</style>
<path d="M10.8,11.8l531.7,531.6"/>
<g>
	<g>
		<g>
			<defs>
				<rect id="SVGID_1_" y="1.1" width="553.3" height="552.8"/>
			</defs>
			<clipPath id="SVGID_00000132074408513985432990000005649833130043675817_">
				<use xlink:href="#SVGID_1_"  style="overflow:visible;"/>
			</clipPath>
			<g style="clip-path:url(#SVGID_00000132074408513985432990000005649833130043675817_);">
				<path d="M542.6,554c-2.7,0-5.4-1-7.5-3.1L3.3,19.2c-4.1-4.1-4.1-10.8,0-15c4.1-4.1,10.8-4.1,15,0L550,535.8
					c4.1,4.1,4.1,10.8,0,15C548,552.9,545.3,554,542.6,554z"/>
			</g>
		</g>
	</g>
</g>
<g>
	<g>
		<g>
			<defs>
				<rect id="SVGID_00000154422457381521687470000002690710771403865488_" y="171.8" width="201.3" height="382.2"/>
			</defs>
			<clipPath id="SVGID_00000080897137053234850820000004286364522453683111_">
				<use xlink:href="#SVGID_00000154422457381521687470000002690710771403865488_"  style="overflow:visible;"/>
			</clipPath>
			<g style="clip-path:url(#SVGID_00000080897137053234850820000004286364522453683111_);">
				<path d="M10.8,554L10.8,554c-5.9,0-10.6-4.7-10.6-10.6l0.1-355.3c0-6.1,3.7-11.6,9.3-13.9c5.6-2.3,12.1-1.1,16.4,3.3
					l172.1,170.6c4.1,4.1,4.2,10.8,0.1,15c-4.1,4.2-10.8,4.2-15,0.1L21.5,202.7l-0.1,340.6C21.4,549.2,16.7,554,10.8,554z
					 M11.1,192.4C11.1,192.4,11.2,192.5,11.1,192.4L11.1,192.4z"/>
			</g>
		</g>
	</g>
</g>
<g>
	<g>
		<g>
			<defs>
				<rect id="SVGID_00000147197545531415985810000002790033910156310429_" x="330.7" width="222.7" height="366.5"/>
			</defs>
			<clipPath id="SVGID_00000177458583034317097970000009549693534183789698_">
				<use xlink:href="#SVGID_00000147197545531415985810000002790033910156310429_"  style="overflow:visible;"/>
			</clipPath>
			<g style="clip-path:url(#SVGID_00000177458583034317097970000009549693534183789698_);">
				<path d="M542.6,366.2c-5.8,0-10.6-4.7-10.6-10.6l-0.1-324.8L349,212.3c-4.1,4.1-10.8,4.1-15-0.1c-4.1-4.1-4.1-10.8,0.1-15
					L527.4,5.4c4.3-4.3,10.7-5.6,16.4-3.2c5.7,2.3,9.3,7.8,9.3,13.9l0.1,339.4C553.1,361.4,548.4,366.2,542.6,366.2z M542.3,20.5
					L542.3,20.5L542.3,20.5z"/>
			</g>
		</g>
	</g>
</g>
</svg>
