<?xml version="1.0" encoding="utf-8"?>
<!-- Generator: Adobe Illustrator 29.5.1, SVG Export Plug-In . SVG Version: 9.03 Build 0)  -->
<svg version="1.0" id="Layer_1" xmlns="http://www.w3.org/2000/svg" xmlns:xlink="http://www.w3.org/1999/xlink" x="0px" y="0px"
	 viewBox="0 0 553.2 707.8" style="enable-background:new 0 0 553.2 707.8;" xml:space="preserve">
<style type="text/css">
	.st0{clip-path:url(#SVGID_00000085230631715520978970000013113343238605248937_);}
	.st1{clip-path:url(#SVGID_00000165954447061610338150000015220793234712893108_);}
	.st2{clip-path:url(#SVGID_00000106827269120496507910000002278249811988702347_);}
	.st3{clip-path:url(#SVGID_00000036212580991281389740000003565097376731772292_);}
</style>
<path d="M10.8,11.8l531.7,531.6"/>
<g>
	<g>
		<defs>
			<rect id="SVGID_1_" y="1.1" width="553.3" height="552.8"/>
		</defs>
		<clipPath id="SVGID_00000127014179562814892290000004083662048046360752_">
			<use xlink:href="#SVGID_1_"  style="overflow:visible;"/>
		</clipPath>
		<g style="clip-path:url(#SVGID_00000127014179562814892290000004083662048046360752_);">
			<path d="M542.6,554c-2.7,0-5.4-1-7.5-3.1L3.3,19.2c-4.1-4.1-4.1-10.8,0-15c4.1-4.1,10.8-4.1,15,0L550,535.8
				c4.1,4.1,4.1,10.8,0,15C548,552.9,545.3,554,542.6,554z"/>
		</g>
	</g>
</g>
<g>
	<g>
		<defs>
			<rect id="SVGID_00000028309287580060793150000008820509568957455005_" y="171.8" width="201.3" height="382.2"/>
		</defs>
		<clipPath id="SVGID_00000124121526891967338000000003421219591221415093_">
			<use xlink:href="#SVGID_00000028309287580060793150000008820509568957455005_"  style="overflow:visible;"/>
		</clipPath>
		<g style="clip-path:url(#SVGID_00000124121526891967338000000003421219591221415093_);">
			<path d="M10.8,554L10.8,554c-5.9,0-10.6-4.7-10.6-10.6l0.1-355.3c0-6.1,3.7-11.6,9.3-13.9c5.6-2.3,12.1-1.1,16.4,3.3l172.1,170.6
				c4.1,4.1,4.2,10.8,0.1,15c-4.1,4.2-10.8,4.2-15,0.1L21.5,202.7l-0.1,340.6C21.4,549.2,16.7,554,10.8,554z M11.1,192.4
				C11.1,192.4,11.2,192.5,11.1,192.4L11.1,192.4z"/>
		</g>
	</g>
</g>
<g>
	<g>
		<defs>
			<rect id="SVGID_00000031207943429762656680000010527059065307401618_" x="330.7" width="222.7" height="366.5"/>
		</defs>
		<clipPath id="SVGID_00000116926386280347974520000001986988786840684468_">
			<use xlink:href="#SVGID_00000031207943429762656680000010527059065307401618_"  style="overflow:visible;"/>
		</clipPath>
		<g style="clip-path:url(#SVGID_00000116926386280347974520000001986988786840684468_);">
			<path d="M542.6,366.2c-5.8,0-10.6-4.7-10.6-10.6l-0.1-324.8L349,212.3c-4.1,4.1-10.8,4.1-15-0.1c-4.1-4.1-4.1-10.8,0.1-15
				L527.4,5.4c4.3-4.3,10.7-5.6,16.4-3.2c5.7,2.3,9.3,7.8,9.3,13.9l0.1,339.4C553.1,361.4,548.4,366.2,542.6,366.2z M542.3,20.5
				L542.3,20.5L542.3,20.5z"/>
		</g>
	</g>
</g>
<g>
	<g transform="translate(352.990804, 769.307914)">
		<g>
			<path d="M-346.4-139.8h-5.2c-0.6,0-0.8-0.3-0.8-0.8v-29.5c0-0.5,0.1-0.9,0.3-1.1c0.2-0.2,0.5-0.3,0.8-0.3c0.3,0.1,0.6,0.3,1,0.7
				l13.3,17.1l13.4-17.1c0.3-0.4,0.6-0.6,0.9-0.7c0.3-0.1,0.6,0,0.8,0.3c0.2,0.2,0.3,0.6,0.3,1.1v29.5c0,0.6-0.3,0.8-0.8,0.8h-5.2
				c-0.6,0-0.8-0.3-0.8-0.8v-14l-7.9,9.8c-0.4,0.5-0.8,0.5-1.2,0l-7.8-9.7v14C-345.6-140-345.9-139.8-346.4-139.8z"/>
		</g>
	</g>
</g>
<g>
	<g transform="translate(405.458172, 769.307914)">
		<g>
			<path d="M-321.6-170.8l13.8,30c0.1,0.3,0.1,0.5,0,0.7s-0.3,0.3-0.6,0.3h-6c-0.5,0-0.8-0.2-0.9-0.6l-1.4-3.4h-11.9l-1.4,3.4
				c-0.2,0.4-0.5,0.6-0.9,0.6h-6c-0.3,0-0.5-0.1-0.6-0.3c-0.1-0.2-0.1-0.4,0-0.7l13.8-30c0.3-0.6,0.6-0.9,1-0.9
				C-322.3-171.7-321.9-171.4-321.6-170.8z M-322.7-158.8l-3.8,9.6h7.6L-322.7-158.8z"/>
		</g>
	</g>
</g>
<g>
	<g transform="translate(453.506177, 769.307914)">
		<g>
			<path d="M-307.8-139.8h-5.5c-0.5,0-0.8-0.3-0.8-0.8v-24.1h-6.5c-0.6,0-0.8-0.3-0.8-0.8v-4.4c0-0.6,0.3-0.8,0.8-0.8h20
				c0.5,0,0.8,0.3,0.8,0.8v4.4c0,0.6-0.3,0.8-0.8,0.8h-6.5v24.1C-307-140-307.3-139.8-307.8-139.8z"/>
		</g>
	</g>
</g>
<g>
	<g transform="translate(495.681874, 769.307914)">
		<g>
			<path d="M-286.1-139.8h-18.1c-0.6,0-0.8-0.3-0.8-0.8v-29.3c0-0.6,0.3-0.8,0.8-0.8h18.1c0.6,0,0.8,0.3,0.8,0.8v4.4
				c0,0.6-0.3,0.8-0.8,0.8H-298v8.7h10.2c0.6,0,0.8,0.3,0.8,0.8v4.1c0,0.6-0.3,0.8-0.8,0.8H-298v4.4h11.9c0.6,0,0.8,0.3,0.8,0.8v4.4
				C-285.3-140-285.5-139.8-286.1-139.8z"/>
		</g>
	</g>
</g>
<g>
	<g transform="translate(539.204575, 769.307914)">
		<g>
			<path d="M-271.7-151.2l5.6,10.4c0.2,0.3,0.2,0.5,0.1,0.7c-0.1,0.2-0.3,0.3-0.6,0.3h-6.2c-0.4,0-0.8-0.2-1-0.6l-4.9-9.7h-4.7v9.5
				c0,0.6-0.3,0.8-0.8,0.8h-5.4c-0.6,0-0.8-0.3-0.8-0.8v-29.3c0-0.6,0.3-0.8,0.8-0.8h11.6c2.2,0,4,0.3,5.4,0.8
				c1.5,0.5,2.6,1.2,3.5,2.1c0.9,0.9,1.5,2,1.9,3.2s0.6,2.6,0.6,4c0,2.3-0.4,4.2-1.3,5.8C-268.9-153.2-270.1-152-271.7-151.2z
				 M-279.2-164.7h-4.2v8.5h4.2c0.3,0,0.7,0,1.1,0c0.5,0,0.9-0.1,1.4-0.2c0.5-0.1,1-0.4,1.4-0.7s0.8-0.7,1.1-1.3
				c0.3-0.6,0.4-1.3,0.4-2.1s-0.1-1.5-0.4-2c-0.2-0.5-0.6-0.9-1-1.2s-0.8-0.5-1.3-0.6s-1-0.2-1.5-0.2
				C-278.4-164.6-278.8-164.7-279.2-164.7z"/>
		</g>
	</g>
</g>
<g>
	<g transform="translate(586.087204, 769.307914)">
		<g>
			<path d="M-268.6-139.8h-5.4c-0.6,0-0.8-0.3-0.8-0.8v-29.3c0-0.6,0.3-0.8,0.8-0.8h5.4c0.5,0,0.8,0.3,0.8,0.8v29.3
				C-267.8-140-268.1-139.8-268.6-139.8z"/>
		</g>
	</g>
</g>
<g>
	<g transform="translate(620.771176, 769.307914)">
		<g>
			<path d="M-249.9-170.8l13.8,30c0.1,0.3,0.1,0.5,0,0.7s-0.3,0.3-0.6,0.3h-6c-0.5,0-0.8-0.2-0.9-0.6l-1.4-3.4h-11.9l-1.4,3.4
				c-0.2,0.4-0.5,0.6-0.9,0.6h-6c-0.3,0-0.5-0.1-0.6-0.3c-0.1-0.2-0.1-0.4,0-0.7l13.8-30c0.3-0.6,0.6-0.9,1-0.9
				C-250.5-171.7-250.2-171.4-249.9-170.8z M-250.9-158.8l-3.8,9.6h7.6L-250.9-158.8z"/>
		</g>
	</g>
</g>
<g>
	<g transform="translate(668.819192, 769.307914)">
		<g>
			<path d="M-230.9-139.8h-15.5c-0.6,0-0.8-0.3-0.8-0.8v-29.3c0-0.6,0.3-0.8,0.8-0.8h5.4c0.5,0,0.8,0.3,0.8,0.8v24.1h9.3
				c0.6,0,0.8,0.3,0.8,0.8v4.4C-230.1-140-230.4-139.8-230.9-139.8z"/>
		</g>
	</g>
</g>
<g>
	<g transform="translate(709.375447, 769.307914)">
		<g>
			<path d="M-214.9-139.8H-233c-0.6,0-0.8-0.3-0.8-0.8v-29.3c0-0.6,0.3-0.8,0.8-0.8h18.1c0.6,0,0.8,0.3,0.8,0.8v4.4
				c0,0.6-0.3,0.8-0.8,0.8h-11.9v8.7h10.2c0.6,0,0.8,0.3,0.8,0.8v4.1c0,0.6-0.3,0.8-0.8,0.8h-10.2v4.4h11.9c0.6,0,0.8,0.3,0.8,0.8
				v4.4C-214-140-214.3-139.8-214.9-139.8z"/>
		</g>
	</g>
</g>
<g>
	<g transform="translate(752.898148, 769.307914)">
		<g>
			<path d="M-209.9-139c-1.5,0-3.1-0.1-4.7-0.4s-3.3-0.7-5.3-1.4c-0.5-0.2-0.7-0.5-0.5-1.1l1.5-4.4c0.2-0.5,0.5-0.7,1.1-0.5
				c1.4,0.5,2.8,1,4.1,1.2c1.4,0.3,2.6,0.4,3.7,0.4c1.3,0,2.3-0.2,3.1-0.7c0.8-0.5,1.2-1.2,1.2-2.1c0-0.6-0.2-1.1-0.6-1.6
				s-1-0.9-1.7-1.4c-0.7-0.4-1.5-0.9-2.4-1.3c-0.9-0.4-1.8-0.9-2.7-1.4c-0.9-0.5-1.8-1-2.6-1.6c-0.8-0.6-1.6-1.2-2.2-1.9
				c-0.7-0.7-1.2-1.5-1.5-2.5c-0.4-0.9-0.6-2-0.6-3.2c0-1.6,0.3-3,0.9-4.1c0.6-1.1,1.4-2.1,2.4-2.8c1-0.7,2.2-1.2,3.4-1.6
				c1.3-0.3,2.6-0.5,4-0.5c0.8,0,1.7,0.1,2.6,0.2c1,0.1,1.9,0.3,2.9,0.5s1.9,0.5,2.9,0.8c0.5,0.2,0.7,0.5,0.5,1l-1.3,4.2
				c-0.2,0.5-0.5,0.7-1,0.5c-1-0.4-2.1-0.7-3.2-0.9s-2.1-0.4-3.1-0.4c-0.7,0-1.3,0.1-1.9,0.2c-0.6,0.2-1,0.4-1.4,0.8
				c-0.3,0.3-0.5,0.8-0.5,1.4c0,0.6,0.2,1.1,0.5,1.5s0.8,0.9,1.4,1.2c0.6,0.4,1.3,0.8,2.1,1.1c0.8,0.4,1.7,0.8,2.5,1.2
				c0.9,0.5,1.9,1,2.8,1.6s1.8,1.2,2.6,2c0.8,0.8,1.4,1.6,1.9,2.7c0.5,1,0.7,2.3,0.7,3.7c0,1.3-0.2,2.5-0.6,3.5s-1,1.9-1.7,2.6
				c-0.7,0.7-1.6,1.3-2.6,1.7s-2,0.8-3.1,1C-207.7-139.1-208.8-139-209.9-139z"/>
		</g>
	</g>
</g>
<g transform="matrix(1, 0, 0, 1, 473, 800)">
	<g>
		<g>
			<defs>
				<rect id="SVGID_00000183963664499249071930000017163455026396344709_" x="-315.6" y="-129.5" width="249.3" height="37.3"/>
			</defs>
			<clipPath id="SVGID_00000018194889817501844450000014338456489283210370_">
				<use xlink:href="#SVGID_00000183963664499249071930000017163455026396344709_"  style="overflow:visible;"/>
			</clipPath>
			<g style="clip-path:url(#SVGID_00000018194889817501844450000014338456489283210370_);">
				<g>
					<g transform="translate(1.604339, 22.088924)">
						<g>
							<path d="M-307.8-122.2h-4.6c-0.4,0-0.6-0.2-0.6-0.6v-19.9c0-0.4,0.2-0.6,0.6-0.6h4.6c1.7,0,3.2,0.2,4.5,0.7
								c1.3,0.5,2.5,1.2,3.5,2c1,0.9,1.7,2,2.2,3.3c0.5,1.3,0.8,2.8,0.8,4.4s-0.2,3.1-0.8,4.4c-0.5,1.3-1.2,2.4-2.2,3.3
								c-0.9,0.9-2.1,1.6-3.4,2.1C-304.6-122.4-306.1-122.2-307.8-122.2z M-310.3-140.7v16h2.5c1.7,0,3.2-0.3,4.4-0.9
								c1.2-0.6,2.2-1.5,2.9-2.7c0.7-1.2,1-2.7,1-4.4c0-1.7-0.3-3.2-1-4.4c-0.7-1.2-1.6-2.1-2.9-2.7c-1.2-0.6-2.7-0.9-4.4-0.9
								H-310.3z"/>
						</g>
					</g>
				</g>
				<g>
					<g transform="translate(24.585872, 22.088924)">
						<g>
							<path d="M-294.6-122.2h-10.1c-0.4,0-0.6-0.2-0.6-0.6v-19.9c0-0.4,0.2-0.6,0.6-0.6h10.1c0.4,0,0.6,0.2,0.6,0.6v1.4
								c0,0.4-0.2,0.6-0.6,0.6h-8v9.3h7c0.4,0,0.6,0.2,0.6,0.6v1.3c0,0.4-0.2,0.6-0.6,0.6h-7v4.2h8c0.4,0,0.6,0.2,0.6,0.6v1.4
								C-294.1-122.4-294.3-122.2-294.6-122.2z"/>
						</g>
					</g>
				</g>
				<g>
					<g transform="translate(43.824647, 22.088924)">
						<g>
							<path d="M-290.1-122.2h-8.3c-0.4,0-0.6-0.2-0.6-0.6v-19.9c0-0.4,0.2-0.6,0.6-0.6h1.5c0.4,0,0.6,0.2,0.6,0.6v17.9h6.2
								c0.4,0,0.6,0.2,0.6,0.6v1.4C-289.5-122.4-289.7-122.2-290.1-122.2z"/>
						</g>
					</g>
				</g>
				<g>
					<g transform="translate(75.554982, 22.088924)">
						<g>
							<path d="M-286.3-122.2h-1.5c-0.4,0-0.6-0.2-0.6-0.6v-20c0-0.3,0.1-0.6,0.2-0.8s0.3-0.2,0.5-0.2c0.2,0,0.4,0.2,0.6,0.5
								l12.1,15.2v-14.6c0-0.4,0.2-0.6,0.6-0.6h1.5c0.4,0,0.6,0.2,0.6,0.6v20c0,0.3-0.1,0.6-0.2,0.8c-0.1,0.2-0.3,0.2-0.5,0.2
								c-0.2,0-0.4-0.2-0.6-0.5l-12.1-15.3v14.8C-285.7-122.4-285.9-122.2-286.3-122.2z"/>
						</g>
					</g>
				</g>
				<g>
					<g transform="translate(99.24405, 22.088924)">
						<g>
							<path d="M-270.4-121.7c-1.2,0-2.4-0.2-3.5-0.5s-2.1-0.8-3-1.5s-1.7-1.4-2.4-2.3c-0.7-0.9-1.2-1.9-1.5-3
								c-0.4-1.1-0.5-2.3-0.5-3.6s0.2-2.5,0.5-3.6c0.4-1.1,0.9-2.1,1.5-3c0.7-0.9,1.4-1.7,2.4-2.3c0.9-0.6,1.9-1.1,3-1.5
								c1.1-0.3,2.2-0.5,3.5-0.5c1.2,0,2.4,0.2,3.5,0.5s2.1,0.8,3,1.5c0.9,0.6,1.7,1.4,2.4,2.3c0.7,0.9,1.2,1.9,1.5,3
								c0.4,1.1,0.5,2.3,0.5,3.6s-0.2,2.5-0.5,3.6c-0.4,1.1-0.9,2.1-1.5,3c-0.7,0.9-1.5,1.7-2.4,2.3c-0.9,0.6-1.9,1.1-3,1.5
								C-268.1-121.9-269.2-121.7-270.4-121.7z M-270.4-124.3c1.1,0,2.2-0.2,3.2-0.6s1.9-1,2.6-1.7c0.8-0.8,1.3-1.6,1.8-2.6
								c0.4-1,0.6-2.2,0.6-3.4c0-1.2-0.2-2.4-0.6-3.4c-0.4-1-1-1.9-1.8-2.6c-0.8-0.8-1.6-1.3-2.6-1.7c-1-0.4-2.1-0.6-3.2-0.6
								s-2.2,0.2-3.2,0.6s-1.9,1-2.6,1.7c-0.8,0.7-1.3,1.6-1.8,2.6c-0.4,1-0.6,2.1-0.6,3.4c0,1.2,0.2,2.4,0.6,3.4s1,1.9,1.8,2.6
								c0.8,0.7,1.6,1.3,2.6,1.7C-272.7-124.5-271.6-124.3-270.4-124.3z"/>
						</g>
					</g>
				</g>
				<g>
					<g transform="translate(125.835036, 22.088924)">
						<g>
							<path d="M-260.9-129.5l3.4,6.7c0.1,0.2,0.1,0.4,0,0.5s-0.2,0.2-0.4,0.2h-1.8c-0.3,0-0.5-0.1-0.6-0.4l-3.1-6.2
								c-0.3,0-0.6,0.1-0.9,0.1s-0.6,0-0.9,0h-3.6v6c0,0.4-0.2,0.6-0.6,0.6h-1.5c-0.4,0-0.6-0.2-0.6-0.6v-19.9
								c0-0.4,0.2-0.6,0.6-0.6h5.5c2.8,0,4.9,0.6,6.2,1.9c1.3,1.2,2,3,2,5.3C-257.3-132.7-258.5-130.6-260.9-129.5z M-269-131.2h3.3
								c0.3,0,0.6,0,1,0s0.8-0.1,1.2-0.2s0.9-0.2,1.3-0.4c0.4-0.2,0.8-0.5,1.1-0.8c0.3-0.3,0.6-0.8,0.8-1.3c0.2-0.5,0.3-1.2,0.3-2
								s-0.1-1.4-0.3-2c-0.2-0.5-0.5-1-0.8-1.3c-0.3-0.3-0.7-0.6-1.1-0.8c-0.4-0.2-0.8-0.3-1.3-0.4c-0.4-0.1-0.8-0.1-1.2-0.1
								s-0.7,0-1,0h-3.3V-131.2z"/>
						</g>
					</g>
				</g>
				<g>
					<g transform="translate(147.616836, 22.088924)">
						<g>
							<path d="M-258.7-122.2h-1.6c-0.4,0-0.6-0.2-0.6-0.6v-17.9h-4.8c-0.4,0-0.6-0.2-0.6-0.6v-1.4c0-0.4,0.2-0.6,0.6-0.6h12.4
								c0.4,0,0.6,0.2,0.6,0.6v1.4c0,0.4-0.2,0.6-0.6,0.6h-4.8v17.9C-258.1-122.4-258.3-122.2-258.7-122.2z"/>
						</g>
					</g>
				</g>
				<g>
					<g transform="translate(166.517225, 22.088924)">
						<g>
							<path d="M-247.3-122.2h-10.1c-0.4,0-0.6-0.2-0.6-0.6v-19.9c0-0.4,0.2-0.6,0.6-0.6h10.1c0.4,0,0.6,0.2,0.6,0.6v1.4
								c0,0.4-0.2,0.6-0.6,0.6h-8v9.3h7c0.4,0,0.6,0.2,0.6,0.6v1.3c0,0.4-0.2,0.6-0.6,0.6h-7v4.2h8c0.4,0,0.6,0.2,0.6,0.6v1.4
								C-246.8-122.4-247-122.2-247.3-122.2z"/>
						</g>
					</g>
				</g>
			</g>
		</g>
	</g>
</g>
</svg>
